<svg xmlns="http://www.w3.org/2000/svg" viewBox="0 0 46 46'" width="46" height="46" role="img" aria-label="Google">
  <defs>
    <linearGradient id="g1" x1="0" x2="1">
      <stop offset="0%" stop-color="#4285F4"/>
      <stop offset="100%" stop-color="#34A853"/>
    </linearGradient>
  </defs>
  <g fill="none" fill-rule="evenodd">
    <path d="M23 9c3.9 0 7.1 1.4 9.3 3.6l6.9-6.9C36.4 2.3 30.1 0 23 0 14.3 0 6.7 4.9 2.6 12.1l7.7 6C12.6 12 17.4 9 23 9z" fill="#4285F4"/>
    <path d="M46 23c0-1.6-.1-3.1-.4-4.6H23v9.1h12.4c-.5 2.6-2 4.8-4.2 6.3l6.8 5.2C42.7 36.2 46 30.1 46 23z" fill="#34A853"/>
    <path d="M9.3 28.1c-.6-1.8-.9-3.7-.9-5.6 0-1.9.3-3.8.9-5.6l-7.7-6C.9 13.7 0 18.2 0 22.5c0 4.3.9 8.8 3.6 12.2l5.7-6.6z" fill="#FBBC05"/>
    <path d="M23 46c7.1 0 13.5-2.3 18.2-6.1l-6.8-5.2c-2 1.6-4.9 2.6-8.6 2.6-5.6 0-10.4-3-12.9-7.4l-7.7 6C6.7 41.1 14.3 46 23 46z" fill="#EA4335"/>
  </g>
</svg>