<?xml version="1.0" encoding="UTF-8"?>
<svg version="1.1" xmlns="http://www.w3.org/2000/svg" width="40" height="40">
<path d="M0 0 C4.65691145 2.81558035 7.6560708 6.50056202 9.625 11.5625 C10.80071849 18.96360562 10.65221783 25.63429647 6.3046875 31.9140625 C1.08755535 37.03413173 -3.18139041 38.31310603 -10.25 38.25 C-11.04994385 38.24564941 -11.8498877 38.24129883 -12.67407227 38.23681641 C-17.37618296 38.05483649 -20.59631488 37.57020933 -24.3125 34.4375 C-26.02734375 32.47265625 -26.02734375 32.47265625 -27.375 30.5625 C-28.035 29.675625 -28.695 28.78875 -29.375 27.875 C-31.23017538 21.72973154 -31.23017538 15.39526846 -29.375 9.25 C-22.16296788 -0.44116816 -11.79797149 -5.0204134 0 0 Z " fill="#0B64C1" transform="translate(30.375,2.4375)"/>
<path d="M0 0 C0.33 0 0.66 0 1 0 C1 6.27 1 12.54 1 19 C1.66 19 2.32 19 3 19 C3 12.73 3 6.46 3 0 C3.33 0 3.66 0 4 0 C4 6.27 4 12.54 4 19 C5.98 19 7.96 19 10 19 C10 14.71 10 10.42 10 6 C11.65 5.67 13.3 5.34 15 5 C16 6 16 6 16.09765625 8.94140625 C16.08605469 10.13636719 16.07445313 11.33132812 16.0625 12.5625 C16.05347656 13.76003906 16.04445313 14.95757812 16.03515625 16.19140625 C16.02355469 17.11824219 16.01195313 18.04507813 16 19 C17.98 19 19.96 19 22 19 C22 14.38 22 9.76 22 5 C22.33 5 22.66 5 23 5 C23.16249454 7.41936317 23.28097817 9.82781859 23.375 12.25 C23.42527344 12.93191406 23.47554687 13.61382812 23.52734375 14.31640625 C23.5859375 16.328125 23.5859375 16.328125 23 20 C19.14303782 23.84469839 15.54689187 24.53007301 10.31835938 24.59570312 C9.13983398 24.57926758 9.13983398 24.57926758 7.9375 24.5625 C6.75317383 24.59827148 6.75317383 24.59827148 5.54492188 24.63476562 C1.09524603 24.62357616 -0.50416993 24.41097537 -4.05859375 21.46484375 C-4.69925781 20.65144531 -5.33992187 19.83804688 -6 19 C-4.02 19 -2.04 19 0 19 C0 12.73 0 6.46 0 0 Z " fill="#166BC4" transform="translate(12,16)"/>
<path d="M0 0 C2.1484375 1.50390625 2.1484375 1.50390625 4 4 C4.2906124 6.89449949 4.38186045 9.37949935 4.25 12.25 C4.23195313 12.99507812 4.21390625 13.74015625 4.1953125 14.5078125 C4.14835649 16.33909701 4.07661652 18.16971649 4 20 C2.02 20 0.04 20 -2 20 C-2.33 15.71 -2.66 11.42 -3 7 C-4.32 7 -5.64 7 -7 7 C-7.33 11.29 -7.66 15.58 -8 20 C-9.98 20 -11.96 20 -14 20 C-14 13.73 -14 7.46 -14 1 C-12.35 1 -10.7 1 -9 1 C-9 1.66 -9 2.32 -9 3 C-8.34 3 -7.68 3 -7 3 C-7 2.34 -7 1.68 -7 1 C-4.4086487 -0.29567565 -2.87704151 -0.34250494 0 0 Z " fill="#F4F8FC" transform="translate(30,15)"/>
<path d="M0 0 C0.66 0.99 1.32 1.98 2 3 C5.05429073 4.21284876 5.05429073 4.21284876 8 5 C8 5.33 8 5.66 8 6 C6.35 6 4.7 6 3 6 C3 12.6 3 19.2 3 26 C-2.36396743 20.63603257 -3.14374956 19.22659138 -3.25 12.1875 C-3.22590362 7.21762197 -2.74672261 4.12008392 0 0 Z " fill="#0762C0" transform="translate(3,9)"/>
<path d="M0 0 C1.98 0 3.96 0 6 0 C6 6.27 6 12.54 6 19 C4.02 19 2.04 19 0 19 C0 12.73 0 6.46 0 0 Z " fill="#F9FBFD" transform="translate(6,16)"/>
<path d="M0 0 C2.0625 0.4375 2.0625 0.4375 4 1 C4.625 2.875 4.625 2.875 5 5 C4.34 5.66 3.68 6.32 3 7 C0.375 6.625 0.375 6.625 -2 6 C-1.125 1.125 -1.125 1.125 0 0 Z " fill="#EAF2F9" transform="translate(8,6)"/>
</svg>
